<svg width="24" height="24" fill="none" xmlns="http://www.w3.org/2000/svg"><g clip-path="url(#clipCollectionWhite)" fill="var(--nero-white)"><path d="M0 19.5a2.25 2.25 0 002.25 2.25h19.5A2.25 2.25 0 0024 19.5V9a2.25 2.25 0 00-2.25-2.25H2.25A2.25 2.25 0 000 9v10.5z"/><path fill-rule="evenodd" clip-rule="evenodd" d="M3 4.5a.75.75 0 00.75.75h16.5a.75.75 0 100-1.5H3.75A.75.75 0 003 4.5zm3-3a.75.75 0 00.75.75h10.5a.75.75 0 100-1.5H6.75A.75.75 0 006 1.5z"/></g><defs><clipPath id="clipCollectionWhite"><path fill="var(--nero-white)" d="M0 0h24v24H0z"/></clipPath></defs></svg>
