<svg width="16" height="16" fill="none" xmlns="http://www.w3.org/2000/svg"><g clip-path="url(#clip0)"><path fill-rule="evenodd" clip-rule="evenodd" d="M9.065.435c-.58-.58-1.52-.58-2.1 0L.45 6.95c-.58.58-.58 1.519 0 2.098l6.516 6.516c.58.58 1.519.58 2.098 0l6.516-6.516c.58-.58.58-1.519 0-2.098L9.065.435zM8.015 4a.905.905 0 00-.9.995l.35 3.507a.552.552 0 001.1 0l.35-3.507a.905.905 0 00-.9-.995zm.002 6a1 1 0 100 2 1 1 0 000-2z" fill="#B8557B"/></g><defs><clipPath id="clip0"><path fill="#fff" d="M0 0h16v16H0z"/></clipPath></defs></svg>