<svg width="16" height="16" fill="none" xmlns="http://www.w3.org/2000/svg"><g clip-path="url(#clip0)" fill-rule="evenodd" clip-rule="evenodd"><path d="M8 15A7 7 0 108 1a7 7 0 000 14z" fill="#fff"/><path d="M8 15A7 7 0 108 1a7 7 0 000 14zm0 1A8 8 0 108-.001 8 8 0 008 16z" fill="#309DCD"/><path d="M10.97 4.97a.75.75 0 011.072 1.05L8.05 11.01a.75.75 0 01-1.08.02L4.325 8.384a.75.75 0 111.06-1.06l2.094 2.093 3.473-4.425a.24.24 0 01.02-.022h-.001z" fill="#309DCD"/></g><defs><clipPath id="clip0"><path fill="#fff" d="M0 0h16v16H0z"/></clipPath></defs></svg>